<svg xmlns="http://www.w3.org/2000/svg" viewBox="0 0 1200 260" role="img" aria-label="Audio waveform, duration 11:59">
  <rect width="1200" height="260" fill="#f7f4ec"/>
  <line x1="0" y1="130.00" x2="1200" y2="130.00" stroke="#d8d0bd" stroke-width="2"/>
  <path d="M0.00,67.88 L0.00,192.12 M1.67,54.10 L1.67,205.90 M3.34,64.78 L3.34,195.22 M5.01,46.85 L5.01,213.15 M6.68,76.30 L6.68,183.70 M8.34,29.81 L8.34,230.19 M10.01,104.98 L10.01,155.02 M11.68,31.77 L11.68,228.23 M13.35,41.04 L13.35,218.96 M15.02,104.62 L15.02,155.38 M16.69,88.05 L16.69,171.95 M18.36,112.30 L18.36,147.70 M20.03,98.19 L20.03,161.81 M21.70,106.73 L21.70,153.27 M23.37,74.95 L23.37,185.05 M25.03,71.35 L25.03,188.65 M26.70,85.00 L26.70,175.00 M28.37,82.44 L28.37,177.56 M30.04,86.63 L30.04,173.37 M31.71,76.54 L31.71,183.46 M33.38,57.96 L33.38,202.04 M35.05,41.64 L35.05,218.36 M36.72,85.86 L36.72,174.14 M38.39,92.86 L38.39,167.14 M40.06,86.42 L40.06,173.58 M41.72,74.27 L41.72,185.73 M43.39,73.89 L43.39,186.11 M45.06,70.89 L45.06,189.11 M46.73,58.67 L46.73,201.33 M48.40,74.34 L48.40,185.66 M50.07,78.93 L50.07,181.07 M51.74,88.34 L51.74,171.66 M53.41,96.54 L53.41,163.46 M55.08,68.54 L55.08,191.46 M56.75,90.85 L56.75,169.15 M58.41,87.04 L58.41,172.96 M60.08,77.46 L60.08,182.54 M61.75,94.50 L61.75,165.50 M63.42,90.95 L63.42,169.05 M65.09,47.64 L65.09,212.36 M66.76,87.49 L66.76,172.51 M68.43,89.52 L68.43,170.48 M70.10,92.28 L70.10,167.72 M71.77,84.52 L71.77,175.48 M73.44,80.34 L73.44,179.66 M75.10,53.00 L75.10,207.00 M76.77,104.50 L76.77,155.50 M78.44,77.88 L78.44,182.12 M80.11,77.49 L80.11,182.51 M81.78,84.58 L81.78,175.42 M83.45,66.36 L83.45,193.64 M85.12,52.95 L85.12,207.05 M86.79,52.40 L86.79,207.60 M88.46,79.98 L88.46,180.02 M90.13,65.56 L90.13,194.44 M91.79,78.70 L91.79,181.30 M93.46,24.60 L93.46,235.40 M95.13,99.13 L95.13,160.87 M96.80,68.14 L96.80,191.86 M98.47,99.96 L98.47,160.04 M100.14,46.49 L100.14,213.51 M101.81,82.11 L101.81,177.89 M103.48,100.15 L103.48,159.85 M105.15,67.38 L105.15,192.62 M106.82,88.46 L106.82,171.54 M108.48,68.99 L108.48,191.01 M110.15,92.08 L110.15,167.92 M111.82,87.05 L111.82,172.95 M113.49,110.26 L113.49,149.74 M115.16,31.33 L115.16,228.67 M116.83,77.28 L116.83,182.72 M118.50,96.28 L118.50,163.72 M120.17,96.86 L120.17,163.14 M121.84,28.98 L121.84,231.02 M123.50,59.63 L123.50,200.37 M125.17,48.94 L125.17,211.06 M126.84,76.11 L126.84,183.89 M128.51,59.49 L128.51,200.51 M130.18,54.19 L130.18,205.81 M131.85,69.46 L131.85,190.54 M133.52,69.06 L133.52,190.94 M135.19,85.81 L135.19,174.19 M136.86,97.96 L136.86,162.04 M138.53,42.75 L138.53,217.25 M140.19,100.74 L140.19,159.26 M141.86,96.42 L141.86,163.58 M143.53,90.42 L143.53,169.58 M145.20,64.50 L145.20,195.50 M146.87,94.17 L146.87,165.83 M148.54,26.58 L148.54,233.42 M150.21,77.66 L150.21,182.34 M151.88,80.99 L151.88,179.01 M153.55,57.46 L153.55,202.54 M155.22,71.14 L155.22,188.86 M156.88,87.40 L156.88,172.60 M158.55,95.79 L158.55,164.21 M160.22,45.62 L160.22,214.38 M161.89,75.51 L161.89,184.49 M163.56,81.19 L163.56,178.81 M165.23,77.84 L165.23,182.16 M166.90,91.88 L166.90,168.12 M168.57,94.73 L168.57,165.27 M170.24,20.80 L170.24,239.20 M171.91,79.64 L171.91,180.36 M173.57,106.26 L173.57,153.74 M175.24,80.27 L175.24,179.73 M176.91,91.76 L176.91,168.24 M178.58,83.29 L178.58,176.71 M180.25,96.87 L180.25,163.13 M181.92,87.78 L181.92,172.22 M183.59,74.23 L183.59,185.77 M185.26,72.48 L185.26,187.52 M186.93,94.05 L186.93,165.95 M188.60,73.39 L188.60,186.61 M190.26,54.58 L190.26,205.42 M191.93,79.81 L191.93,180.19 M193.60,92.55 L193.60,167.45 M195.27,99.90 L195.27,160.10 M196.94,87.59 L196.94,172.41 M198.61,92.27 L198.61,167.73 M200.28,98.87 L200.28,161.13 M201.95,104.17 L201.95,155.83 M203.62,79.15 L203.62,180.85 M205.29,99.63 L205.29,160.37 M206.95,102.72 L206.95,157.28 M208.62,90.99 L208.62,169.01 M210.29,49.40 L210.29,210.60 M211.96,88.42 L211.96,171.58 M213.63,84.92 L213.63,175.08 M215.30,109.37 L215.30,150.63 M216.97,27.29 L216.97,232.71 M218.64,73.00 L218.64,187.00 M220.31,91.87 L220.31,168.13 M221.97,95.39 L221.97,164.61 M223.64,107.67 L223.64,152.33 M225.31,24.40 L225.31,235.60 M226.98,102.49 L226.98,157.51 M228.65,67.26 L228.65,192.74 M230.32,87.95 L230.32,172.05 M231.99,90.49 L231.99,169.51 M233.66,110.63 L233.66,149.37 M235.33,114.11 L235.33,145.89 M237.00,88.97 L237.00,171.03 M238.66,66.57 L238.66,193.43 M240.33,64.63 L240.33,195.37 M242.00,86.41 L242.00,173.59 M243.67,93.02 L243.67,166.98 M245.34,95.59 L245.34,164.41 M247.01,98.19 L247.01,161.81 M248.68,90.47 L248.68,169.53 M250.35,46.10 L250.35,213.90 M252.02,82.66 L252.02,177.34 M253.69,63.81 L253.69,196.19 M255.35,75.00 L255.35,185.00 M257.02,45.61 L257.02,214.39 M258.69,88.74 L258.69,171.26 M260.36,75.02 L260.36,184.98 M262.03,50.72 L262.03,209.28 M263.70,32.81 L263.70,227.19 M265.37,47.89 L265.37,212.11 M267.04,71.93 L267.04,188.07 M268.71,48.03 L268.71,211.97 M270.38,93.67 L270.38,166.33 M272.04,90.81 L272.04,169.19 M273.71,90.64 L273.71,169.36 M275.38,78.71 L275.38,181.29 M277.05,79.25 L277.05,180.75 M278.72,96.83 L278.72,163.17 M280.39,99.96 L280.39,160.04 M282.06,29.79 L282.06,230.21 M283.73,85.97 L283.73,174.03 M285.40,107.26 L285.40,152.74 M287.07,62.26 L287.07,197.74 M288.73,98.05 L288.73,161.95 M290.40,65.04 L290.40,194.96 M292.07,64.18 L292.07,195.82 M293.74,65.63 L293.74,194.37 M295.41,49.47 L295.41,210.53 M297.08,49.97 L297.08,210.03 M298.75,87.34 L298.75,172.66 M300.42,84.29 L300.42,175.71 M302.09,97.38 L302.09,162.62 M303.76,102.85 L303.76,157.15 M305.42,105.72 L305.42,154.28 M307.09,102.14 L307.09,157.86 M308.76,44.18 L308.76,215.82 M310.43,87.11 L310.43,172.89 M312.10,93.37 L312.10,166.63 M313.77,90.62 L313.77,169.38 M315.44,103.49 L315.44,156.51 M317.11,50.33 L317.11,209.67 M318.78,94.87 L318.78,165.13 M320.45,89.89 L320.45,170.11 M322.11,87.20 L322.11,172.80 M323.78,31.66 L323.78,228.34 M325.45,42.33 L325.45,217.67 M327.12,79.47 L327.12,180.53 M328.79,104.36 L328.79,155.64 M330.46,93.10 L330.46,166.90 M332.13,79.78 L332.13,180.22 M333.80,108.29 L333.80,151.71 M335.47,110.70 L335.47,149.30 M337.13,103.58 L337.13,156.42 M338.80,21.36 L338.80,238.64 M340.47,104.90 L340.47,155.10 M342.14,68.93 L342.14,191.07 M343.81,108.24 L343.81,151.76 M345.48,78.63 L345.48,181.37 M347.15,76.49 L347.15,183.51 M348.82,72.55 L348.82,187.45 M350.49,55.12 L350.49,204.88 M352.16,96.00 L352.16,164.00 M353.82,85.75 L353.82,174.25 M355.49,83.91 L355.49,176.09 M357.16,88.87 L357.16,171.13 M358.83,86.17 L358.83,173.83 M360.50,96.32 L360.50,163.68 M362.17,99.42 L362.17,160.58 M363.84,91.61 L363.84,168.39 M365.51,102.38 L365.51,157.62 M367.18,96.55 L367.18,163.45 M368.85,73.92 L368.85,186.08 M370.51,86.87 L370.51,173.13 M372.18,48.71 L372.18,211.29 M373.85,41.88 L373.85,218.12 M375.52,64.74 L375.52,195.26 M377.19,73.37 L377.19,186.63 M378.86,33.23 L378.86,226.77 M380.53,98.07 L380.53,161.93 M382.20,92.08 L382.20,167.92 M383.87,107.20 L383.87,152.80 M385.54,102.40 L385.54,157.60 M387.20,89.67 L387.20,170.33 M388.87,96.40 L388.87,163.60 M390.54,89.34 L390.54,170.66 M392.21,87.41 L392.21,172.59 M393.88,92.39 L393.88,167.61 M395.55,99.62 L395.55,160.38 M397.22,87.50 L397.22,172.50 M398.89,82.06 L398.89,177.94 M400.56,97.25 L400.56,162.75 M402.23,59.15 L402.23,200.85 M403.89,25.63 L403.89,234.37 M405.56,38.51 L405.56,221.49 M407.23,66.02 L407.23,193.98 M408.90,75.11 L408.90,184.89 M410.57,118.74 L410.57,141.26 M412.24,23.11 L412.24,236.89 M413.91,104.89 L413.91,155.11 M415.58,36.63 L415.58,223.37 M417.25,47.43 L417.25,212.57 M418.92,103.58 L418.92,156.42 M420.58,106.09 L420.58,153.91 M422.25,81.61 L422.25,178.39 M423.92,87.28 L423.92,172.72 M425.59,81.16 L425.59,178.84 M427.26,86.43 L427.26,173.57 M428.93,74.74 L428.93,185.26 M430.60,79.76 L430.60,180.24 M432.27,111.42 L432.27,148.58 M433.94,61.89 L433.94,198.11 M435.61,89.97 L435.61,170.03 M437.27,93.86 L437.27,166.14 M438.94,90.43 L438.94,169.57 M440.61,96.63 L440.61,163.37 M442.28,52.17 L442.28,207.83 M443.95,89.43 L443.95,170.57 M445.62,92.78 L445.62,167.22 M447.29,99.24 L447.29,160.76 M448.96,98.78 L448.96,161.22 M450.63,120.75 L450.63,139.25 M452.29,28.08 L452.29,231.92 M453.96,71.96 L453.96,188.04 M455.63,27.98 L455.63,232.02 M457.30,77.84 L457.30,182.16 M458.97,99.92 L458.97,160.08 M460.64,117.54 L460.64,142.46 M462.31,107.85 L462.31,152.15 M463.98,95.53 L463.98,164.47 M465.65,52.59 L465.65,207.41 M467.32,83.53 L467.32,176.47 M468.98,46.38 L468.98,213.62 M470.65,43.27 L470.65,216.73 M472.32,88.26 L472.32,171.74 M473.99,43.16 L473.99,216.84 M475.66,101.12 L475.66,158.88 M477.33,50.31 L477.33,209.69 M479.00,72.59 L479.00,187.41 M480.67,90.51 L480.67,169.49 M482.34,49.79 L482.34,210.21 M484.01,45.66 L484.01,214.34 M485.67,64.21 L485.67,195.79 M487.34,77.98 L487.34,182.02 M489.01,60.05 L489.01,199.95 M490.68,86.74 L490.68,173.26 M492.35,62.57 L492.35,197.43 M494.02,56.91 L494.02,203.09 M495.69,51.77 L495.69,208.23 M497.36,79.73 L497.36,180.27 M499.03,99.52 L499.03,160.48 M500.70,72.27 L500.70,187.73 M502.36,30.49 L502.36,229.51 M504.03,98.69 L504.03,161.31 M505.70,98.19 L505.70,161.81 M507.37,76.87 L507.37,183.13 M509.04,94.57 L509.04,165.43 M510.71,84.23 L510.71,175.77 M512.38,25.63 L512.38,234.37 M514.05,107.87 L514.05,152.13 M515.72,89.88 L515.72,170.12 M517.39,99.56 L517.39,160.44 M519.05,99.04 L519.05,160.96 M520.72,93.44 L520.72,166.56 M522.39,73.14 L522.39,186.86 M524.06,87.39 L524.06,172.61 M525.73,101.00 L525.73,159.00 M527.40,54.02 L527.40,205.98 M529.07,53.21 L529.07,206.79 M530.74,52.54 L530.74,207.46 M532.41,43.87 L532.41,216.13 M534.08,71.17 L534.08,188.83 M535.74,50.82 L535.74,209.18 M537.41,105.77 L537.41,154.23 M539.08,102.06 L539.08,157.94 M540.75,76.86 L540.75,183.14 M542.42,90.16 L542.42,169.84 M544.09,90.17 L544.09,169.83 M545.76,99.30 L545.76,160.70 M547.43,96.82 L547.43,163.18 M549.10,85.69 L549.10,174.31 M550.76,90.80 L550.76,169.20 M552.43,63.92 L552.43,196.08 M554.10,68.02 L554.10,191.98 M555.77,66.66 L555.77,193.34 M557.44,58.87 L557.44,201.13 M559.11,67.87 L559.11,192.13 M560.78,57.89 L560.78,202.11 M562.45,53.76 L562.45,206.24 M564.12,79.79 L564.12,180.21 M565.79,106.61 L565.79,153.39 M567.45,81.44 L567.45,178.56 M569.12,105.45 L569.12,154.55 M570.79,117.11 L570.79,142.89 M572.46,93.67 L572.46,166.33 M574.13,105.84 L574.13,154.16 M575.80,107.93 L575.80,152.07 M577.47,98.11 L577.47,161.89 M579.14,101.80 L579.14,158.20 M580.81,86.79 L580.81,173.21 M582.48,94.05 L582.48,165.95 M584.14,88.78 L584.14,171.22 M585.81,33.15 L585.81,226.85 M587.48,32.27 L587.48,227.73 M589.15,100.80 L589.15,159.20 M590.82,92.90 L590.82,167.10 M592.49,107.01 L592.49,152.99 M594.16,88.40 L594.16,171.60 M595.83,77.91 L595.83,182.09 M597.50,44.28 L597.50,215.72 M599.17,52.59 L599.17,207.41 M600.83,83.28 L600.83,176.72 M602.50,98.84 L602.50,161.16 M604.17,59.57 L604.17,200.43 M605.84,75.58 L605.84,184.42 M607.51,43.99 L607.51,216.01 M609.18,29.54 L609.18,230.46 M610.85,95.86 L610.85,164.14 M612.52,101.74 L612.52,158.26 M614.19,84.12 L614.19,175.88 M615.86,26.04 L615.86,233.96 M617.52,101.67 L617.52,158.33 M619.19,95.98 L619.19,164.02 M620.86,36.41 L620.86,223.59 M622.53,78.24 L622.53,181.76 M624.20,102.47 L624.20,157.53 M625.87,96.07 L625.87,163.93 M627.54,48.94 L627.54,211.06 M629.21,42.12 L629.21,217.88 M630.88,90.42 L630.88,169.58 M632.55,107.88 L632.55,152.12 M634.21,34.53 L634.21,225.47 M635.88,78.64 L635.88,181.36 M637.55,114.13 L637.55,145.87 M639.22,68.75 L639.22,191.25 M640.89,45.74 L640.89,214.26 M642.56,70.49 L642.56,189.51 M644.23,98.09 L644.23,161.91 M645.90,55.67 L645.90,204.33 M647.57,81.41 L647.57,178.59 M649.24,90.59 L649.24,169.41 M650.90,73.08 L650.90,186.92 M652.57,94.60 L652.57,165.40 M654.24,75.33 L654.24,184.67 M655.91,31.23 L655.91,228.77 M657.58,25.91 L657.58,234.09 M659.25,65.04 L659.25,194.96 M660.92,67.31 L660.92,192.69 M662.59,57.77 L662.59,202.23 M664.26,98.48 L664.26,161.52 M665.92,93.06 L665.92,166.94 M667.59,83.15 L667.59,176.85 M669.26,49.86 L669.26,210.14 M670.93,96.58 L670.93,163.42 M672.60,110.63 L672.60,149.37 M674.27,77.44 L674.27,182.56 M675.94,25.39 L675.94,234.61 M677.61,21.68 L677.61,238.32 M679.28,60.33 L679.28,199.67 M680.95,83.04 L680.95,176.96 M682.61,41.56 L682.61,218.44 M684.28,97.07 L684.28,162.93 M685.95,103.79 L685.95,156.21 M687.62,103.42 L687.62,156.58 M689.29,55.42 L689.29,204.58 M690.96,73.64 L690.96,186.36 M692.63,89.86 L692.63,170.14 M694.30,27.12 L694.30,232.88 M695.97,44.02 L695.97,215.98 M697.64,97.10 L697.64,162.90 M699.30,58.87 L699.30,201.13 M700.97,51.16 L700.97,208.84 M702.64,89.85 L702.64,170.15 M704.31,91.33 L704.31,168.67 M705.98,95.75 L705.98,164.25 M707.65,102.37 L707.65,157.63 M709.32,101.15 L709.32,158.85 M710.99,96.62 L710.99,163.38 M712.66,83.35 L712.66,176.65 M714.33,53.31 L714.33,206.69 M715.99,83.32 L715.99,176.68 M717.66,100.25 L717.66,159.75 M719.33,99.38 L719.33,160.62 M721.00,61.49 L721.00,198.51 M722.67,94.87 L722.67,165.13 M724.34,96.31 L724.34,163.69 M726.01,96.36 L726.01,163.64 M727.68,22.76 L727.68,237.24 M729.35,22.41 L729.35,237.59 M731.02,90.34 L731.02,169.66 M732.68,103.65 L732.68,156.35 M734.35,101.35 L734.35,158.65 M736.02,103.56 L736.02,156.44 M737.69,90.23 L737.69,169.77 M739.36,81.69 L739.36,178.31 M741.03,66.69 L741.03,193.31 M742.70,107.85 L742.70,152.15 M744.37,92.57 L744.37,167.43 M746.04,68.38 L746.04,191.62 M747.71,95.26 L747.71,164.74 M749.37,83.39 L749.37,176.61 M751.04,86.87 L751.04,173.13 M752.71,63.24 L752.71,196.76 M754.38,90.95 L754.38,169.05 M756.05,90.46 L756.05,169.54 M757.72,111.90 L757.72,148.10 M759.39,51.56 L759.39,208.44 M761.06,73.07 L761.06,186.93 M762.73,33.10 L762.73,226.90 M764.39,29.06 L764.39,230.94 M766.06,35.12 L766.06,224.88 M767.73,46.98 L767.73,213.02 M769.40,34.85 L769.40,225.15 M771.07,115.67 L771.07,144.33 M772.74,103.64 L772.74,156.36 M774.41,96.55 L774.41,163.45 M776.08,97.40 L776.08,162.60 M777.75,75.40 L777.75,184.60 M779.42,61.33 L779.42,198.67 M781.08,92.31 L781.08,167.69 M782.75,66.13 L782.75,193.87 M784.42,70.61 L784.42,189.39 M786.09,23.92 L786.09,236.08 M787.76,58.45 L787.76,201.55 M789.43,94.73 L789.43,165.27 M791.10,77.20 L791.10,182.80 M792.77,99.20 L792.77,160.80 M794.44,95.71 L794.44,164.29 M796.11,102.75 L796.11,157.25 M797.77,112.09 L797.77,147.91 M799.44,105.43 L799.44,154.57 M801.11,85.06 L801.11,174.94 M802.78,62.78 L802.78,197.22 M804.45,74.51 L804.45,185.49 M806.12,94.02 L806.12,165.98 M807.79,91.72 L807.79,168.28 M809.46,100.42 L809.46,159.58 M811.13,77.43 L811.13,182.57 M812.80,99.76 L812.80,160.24 M814.46,67.40 L814.46,192.60 M816.13,89.42 L816.13,170.58 M817.80,95.86 L817.80,164.14 M819.47,63.67 L819.47,196.33 M821.14,88.73 L821.14,171.27 M822.81,85.84 L822.81,174.16 M824.48,73.33 L824.48,186.67 M826.15,78.94 L826.15,181.06 M827.82,91.97 L827.82,168.03 M829.49,98.32 L829.49,161.68 M831.15,103.73 L831.15,156.27 M832.82,68.47 L832.82,191.53 M834.49,65.27 L834.49,194.73 M836.16,81.63 L836.16,178.37 M837.83,72.10 L837.83,187.90 M839.50,88.87 L839.50,171.13 M841.17,112.05 L841.17,147.95 M842.84,39.65 L842.84,220.35 M844.51,64.35 L844.51,195.65 M846.18,87.12 L846.18,172.88 M847.84,83.36 L847.84,176.64 M849.51,97.61 L849.51,162.39 M851.18,50.87 L851.18,209.13 M852.85,88.09 L852.85,171.91 M854.52,26.81 L854.52,233.19 M856.19,69.54 L856.19,190.46 M857.86,62.57 L857.86,197.43 M859.53,100.47 L859.53,159.53 M861.20,29.02 L861.20,230.98 M862.87,67.68 L862.87,192.32 M864.53,71.19 L864.53,188.81 M866.20,59.28 L866.20,200.72 M867.87,103.64 L867.87,156.36 M869.54,85.70 L869.54,174.30 M871.21,92.32 L871.21,167.68 M872.88,85.11 L872.88,174.89 M874.55,84.02 L874.55,175.98 M876.22,83.09 L876.22,176.91 M877.89,105.24 L877.89,154.76 M879.55,42.83 L879.55,217.17 M881.22,78.33 L881.22,181.67 M882.89,66.67 L882.89,193.33 M884.56,91.20 L884.56,168.80 M886.23,76.48 L886.23,183.52 M887.90,93.32 L887.90,166.68 M889.57,38.54 L889.57,221.46 M891.24,82.07 L891.24,177.93 M892.91,46.19 L892.91,213.81 M894.58,69.36 L894.58,190.64 M896.24,91.93 L896.24,168.07 M897.91,92.07 L897.91,167.93 M899.58,71.74 L899.58,188.26 M901.25,85.72 L901.25,174.28 M902.92,110.53 L902.92,149.47 M904.59,120.91 L904.59,139.09 M906.26,121.04 L906.26,138.96 M907.93,98.45 L907.93,161.55 M909.60,110.63 L909.60,149.37 M911.27,33.14 L911.27,226.86 M912.93,43.51 L912.93,216.49 M914.60,78.53 L914.60,181.47 M916.27,47.54 L916.27,212.46 M917.94,64.74 L917.94,195.26 M919.61,78.34 L919.61,181.66 M921.28,75.85 L921.28,184.15 M922.95,52.39 L922.95,207.61 M924.62,76.82 L924.62,183.18 M926.29,65.69 L926.29,194.31 M927.96,112.18 L927.96,147.82 M929.62,88.11 L929.62,171.89 M931.29,87.56 L931.29,172.44 M932.96,53.47 L932.96,206.53 M934.63,104.69 L934.63,155.31 M936.30,45.60 L936.30,214.40 M937.97,61.94 L937.97,198.06 M939.64,49.02 L939.64,210.98 M941.31,90.96 L941.31,169.04 M942.98,77.92 L942.98,182.08 M944.65,68.60 L944.65,191.40 M946.31,72.74 L946.31,187.26 M947.98,92.33 L947.98,167.67 M949.65,84.94 L949.65,175.06 M951.32,59.08 L951.32,200.92 M952.99,38.43 L952.99,221.57 M954.66,92.59 L954.66,167.41 M956.33,101.30 L956.33,158.70 M958.00,96.28 L958.00,163.72 M959.67,97.65 L959.67,162.35 M961.34,81.97 L961.34,178.03 M963.00,84.32 L963.00,175.68 M964.67,32.27 L964.67,227.73 M966.34,86.81 L966.34,173.19 M968.01,52.30 L968.01,207.70 M969.68,104.73 L969.68,155.27 M971.35,62.47 L971.35,197.53 M973.02,61.70 L973.02,198.30 M974.69,73.33 L974.69,186.67 M976.36,75.20 L976.36,184.80 M978.03,88.60 L978.03,171.40 M979.69,93.01 L979.69,166.99 M981.36,44.16 L981.36,215.84 M983.03,34.22 L983.03,225.78 M984.70,79.39 L984.70,180.61 M986.37,80.18 L986.37,179.82 M988.04,87.33 L988.04,172.67 M989.71,93.19 L989.71,166.81 M991.38,106.08 L991.38,153.92 M993.05,101.35 L993.05,158.65 M994.71,109.03 L994.71,150.97 M996.38,72.54 L996.38,187.46 M998.05,86.34 L998.05,173.66 M999.72,87.74 L999.72,172.26 M1001.39,85.28 L1001.39,174.72 M1003.06,46.78 L1003.06,213.22 M1004.73,106.52 L1004.73,153.48 M1006.40,100.40 L1006.40,159.60 M1008.07,117.24 L1008.07,142.76 M1009.74,72.15 L1009.74,187.85 M1011.40,32.87 L1011.40,227.13 M1013.07,98.75 L1013.07,161.25 M1014.74,112.58 L1014.74,147.42 M1016.41,94.05 L1016.41,165.95 M1018.08,67.59 L1018.08,192.41 M1019.75,57.40 L1019.75,202.60 M1021.42,84.38 L1021.42,175.62 M1023.09,101.79 L1023.09,158.21 M1024.76,94.23 L1024.76,165.77 M1026.43,36.09 L1026.43,223.91 M1028.09,122.66 L1028.09,137.34 M1029.76,103.43 L1029.76,156.57 M1031.43,67.21 L1031.43,192.79 M1033.10,82.89 L1033.10,177.11 M1034.77,92.96 L1034.77,167.04 M1036.44,38.71 L1036.44,221.29 M1038.11,78.77 L1038.11,181.23 M1039.78,91.66 L1039.78,168.34 M1041.45,104.05 L1041.45,155.95 M1043.12,100.45 L1043.12,159.55 M1044.78,78.86 L1044.78,181.14 M1046.45,57.59 L1046.45,202.41 M1048.12,66.02 L1048.12,193.98 M1049.79,76.46 L1049.79,183.54 M1051.46,65.35 L1051.46,194.65 M1053.13,48.41 L1053.13,211.59 M1054.80,79.98 L1054.80,180.02 M1056.47,76.19 L1056.47,183.81 M1058.14,78.00 L1058.14,182.00 M1059.81,47.39 L1059.81,212.61 M1061.47,53.82 L1061.47,206.18 M1063.14,61.10 L1063.14,198.90 M1064.81,82.86 L1064.81,177.14 M1066.48,70.32 L1066.48,189.68 M1068.15,94.54 L1068.15,165.46 M1069.82,97.60 L1069.82,162.40 M1071.49,89.41 L1071.49,170.59 M1073.16,92.76 L1073.16,167.24 M1074.83,79.68 L1074.83,180.32 M1076.50,93.53 L1076.50,166.47 M1078.16,95.61 L1078.16,164.39 M1079.83,78.71 L1079.83,181.29 M1081.50,90.51 L1081.50,169.49 M1083.17,63.02 L1083.17,196.98 M1084.84,60.73 L1084.84,199.27 M1086.51,56.84 L1086.51,203.16 M1088.18,54.30 L1088.18,205.70 M1089.85,43.70 L1089.85,216.30 M1091.52,43.61 L1091.52,216.39 M1093.18,64.12 L1093.18,195.88 M1094.85,51.34 L1094.85,208.66 M1096.52,77.58 L1096.52,182.42 M1098.19,64.51 L1098.19,195.49 M1099.86,92.76 L1099.86,167.24 M1101.53,87.58 L1101.53,172.42 M1103.20,80.15 L1103.20,179.85 M1104.87,77.74 L1104.87,182.26 M1106.54,32.28 L1106.54,227.72 M1108.21,75.49 L1108.21,184.51 M1109.87,54.36 L1109.87,205.64 M1111.54,74.42 L1111.54,185.58 M1113.21,72.31 L1113.21,187.69 M1114.88,85.66 L1114.88,174.34 M1116.55,87.45 L1116.55,172.55 M1118.22,87.49 L1118.22,172.51 M1119.89,104.56 L1119.89,155.44 M1121.56,94.75 L1121.56,165.25 M1123.23,108.98 L1123.23,151.02 M1124.90,90.54 L1124.90,169.46 M1126.56,60.72 L1126.56,199.28 M1128.23,50.08 L1128.23,209.92 M1129.90,47.18 L1129.90,212.82 M1131.57,100.01 L1131.57,159.99 M1133.24,74.19 L1133.24,185.81 M1134.91,101.45 L1134.91,158.55 M1136.58,94.27 L1136.58,165.73 M1138.25,77.13 L1138.25,182.87 M1139.92,94.28 L1139.92,165.72 M1141.59,40.77 L1141.59,219.23 M1143.25,37.35 L1143.25,222.65 M1144.92,82.72 L1144.92,177.28 M1146.59,93.12 L1146.59,166.88 M1148.26,63.52 L1148.26,196.48 M1149.93,35.77 L1149.93,224.23 M1151.60,74.15 L1151.60,185.85 M1153.27,49.17 L1153.27,210.83 M1154.94,102.12 L1154.94,157.88 M1156.61,64.44 L1156.61,195.56 M1158.28,54.02 L1158.28,205.98 M1159.94,32.57 L1159.94,227.43 M1161.61,69.43 L1161.61,190.57 M1163.28,63.25 L1163.28,196.75 M1164.95,101.46 L1164.95,158.54 M1166.62,109.76 L1166.62,150.24 M1168.29,108.79 L1168.29,151.21 M1169.96,85.15 L1169.96,174.85 M1171.63,80.64 L1171.63,179.36 M1173.30,112.93 L1173.30,147.07 M1174.97,88.67 L1174.97,171.33 M1176.63,89.66 L1176.63,170.34 M1178.30,87.48 L1178.30,172.52 M1179.97,58.90 L1179.97,201.10 M1181.64,60.66 L1181.64,199.34 M1183.31,78.60 L1183.31,181.40 M1184.98,93.89 L1184.98,166.11 M1186.65,81.00 L1186.65,179.00 M1188.32,79.35 L1188.32,180.65 M1189.99,91.42 L1189.99,168.58 M1191.66,108.97 L1191.66,151.03 M1193.32,71.08 L1193.32,188.92 M1194.99,53.25 L1194.99,206.75 M1196.66,50.57 L1196.66,209.43 M1198.33,76.52 L1198.33,183.48 M1200.00,94.85 L1200.00,165.15" stroke="#1f6f78" stroke-width="2.2" stroke-linecap="round"/>
  <text x="24" y="42" fill="#263238" font-family="Arial, sans-serif" font-size="24">Moguri audio waveform / 11:59</text>
</svg>
